<svg width="363" height="100" viewBox="0 0 363 100" fill="none" xmlns="http://www.w3.org/2000/svg">
<path d="M114.769 99.5396C118.376 100.058 121.465 99.44 123.328 99.0713C124.424 98.8521 125.411 98.5931 126.258 98.334C127.284 98.0152 127.971 97.0487 127.902 95.9725L127.314 87.4135C127.224 86.0684 125.999 85.0919 124.653 85.3012C124.643 85.3012 124.633 85.3012 124.624 85.3012C123.169 85.5204 122.441 85.63 121.565 85.5602C120.588 85.4805 119.273 85.3709 118.237 84.4443C116.742 83.0992 116.852 80.9569 116.872 80.5683V2.98918C116.872 1.33517 115.536 0 113.882 0H104.596C102.942 0 101.607 1.33517 101.607 2.98918V84.0856C101.537 85.2215 101.268 91.5585 105.822 95.8231C108.9 98.6927 112.697 99.2407 114.769 99.5396Z" fill="white"/>
<path fill-rule="evenodd" clip-rule="evenodd" d="M76.707 98.7327H85.7044C87.8068 98.7327 89.2516 96.6303 88.4943 94.6674L53.0825 2.9096C52.6441 1.75379 51.5282 0.99653 50.2926 0.99653H38.4057C37.1701 0.99653 36.0641 1.75379 35.6158 2.9096L0.203972 94.6674C-0.553286 96.6303 0.891483 98.7327 2.99387 98.7327H11.7023C12.9379 98.7327 14.0439 97.9754 14.4922 96.8196L21.8456 77.7686C21.9154 77.5793 22.1047 77.4497 22.3139 77.4497H66.0954C66.3047 77.4497 66.484 77.5793 66.5637 77.7686L73.9171 96.8196C74.3555 97.9655 75.4715 98.7327 76.707 98.7327ZM27.5151 63.1216L43.6666 20.9842C43.826 20.5557 44.4338 20.5557 44.5933 20.9842L60.8843 63.1216C61.0138 63.4504 60.7647 63.7992 60.416 63.7992H27.9834C27.6247 63.7992 27.3856 63.4504 27.5151 63.1216Z" fill="white"/>
<path d="M203.976 36.807C209.108 29.7625 217.766 24.1827 229.952 24.1827C246.97 24.1827 256.068 34.894 256.068 53.0881V95.7337C256.068 97.3877 254.732 98.7229 253.078 98.7229H243.792C242.138 98.7229 240.803 97.3877 240.803 95.7337V54.2638C240.803 44.8678 236.249 38.4112 225.688 38.4112C216.441 38.4112 209.397 44.1305 207.344 52.5002V95.7337C207.344 97.3877 206.009 98.7229 204.355 98.7229H195.068C193.414 98.7229 192.079 97.3877 192.079 95.7337V54.2638C192.079 44.8678 187.526 38.4112 176.964 38.4112C167.717 38.4112 160.673 44.1305 158.62 52.5002V95.7337C158.62 97.3877 157.285 98.7229 155.631 98.7229H146.345C144.691 98.7229 143.356 97.3877 143.356 95.7337V44.1405C143.356 40.7627 141.592 39.298 138.663 39.298C138.374 39.298 138.095 39.308 137.826 39.3279C136.172 39.4375 134.737 38.2119 134.617 36.548L134.119 29.095C134.029 27.7 134.916 26.4346 136.261 26.0261C138.025 25.478 140.147 25.0695 143.356 25.0695C151.576 25.0695 156.707 29.0352 158.182 35.6313C162.586 29.1747 170.218 24.1827 181.219 24.1827C192.239 24.1827 200.02 28.7362 203.976 36.807Z" fill="white"/>
<path fill-rule="evenodd" clip-rule="evenodd" d="M352.878 86.9492C354.273 86.9492 355.767 86.6504 357.162 86.2519C358.756 85.7537 360.449 86.6504 360.947 88.2443L362.541 93.5244C362.94 94.9192 362.342 96.3139 361.147 97.0113C357.361 99.0038 353.276 100 349.491 100C340.823 100 333.451 94.8195 332.355 84.8571C327.075 94.8195 317.212 100 304.66 100C281.945 100 269.293 82.3665 269.293 62.1428C269.293 41.9191 281.647 23.6878 304.46 23.6878C316.914 23.6878 326.179 28.8683 330.861 37.7348V28.4698C330.861 26.7762 332.156 25.4811 333.85 25.4811H342.019C343.712 25.4811 345.008 26.7762 345.008 28.4698V78.2819C345.008 84.2594 348.694 86.9492 352.878 86.9492ZM283.639 61.8439C283.639 76.6879 293.004 87.0488 306.951 87.0488C320.699 87.0488 330.562 76.7875 330.562 61.8439C330.562 46.9003 320.898 36.639 306.752 36.639C291.609 36.639 283.639 48.1954 283.639 61.8439Z" fill="white"/>
</svg>
